<svg width="32" height="33" viewBox="0 0 32 33" fill="none" xmlns="http://www.w3.org/2000/svg">
<path fill-rule="evenodd" clip-rule="evenodd" d="M16 6.31568C16.3156 6.31568 16.5714 6.56609 16.5714 6.875V26.125C16.5714 26.4339 16.3156 26.6843 16 26.6843C15.6844 26.6843 15.4286 26.4339 15.4286 26.125L15.4286 6.875C15.4286 6.56609 15.6844 6.31568 16 6.31568Z" fill="white"/>
<path fill-rule="evenodd" clip-rule="evenodd" d="M6.27326 16.0943C6.50216 15.8817 6.86384 15.8909 7.08111 16.1149L16 25.3125L24.9189 16.1149C25.1361 15.8909 25.4978 15.8817 25.7267 16.0943C25.9556 16.307 25.965 16.661 25.7478 16.8851L16.4144 26.5101C16.3065 26.6213 16.1567 26.6843 16 26.6843C15.8433 26.6843 15.6934 26.6213 15.5855 26.5101L6.25218 16.8851C6.03492 16.661 6.04436 16.307 6.27326 16.0943Z" fill="white"/>
</svg>
