<svg width="24" height="25" viewBox="0 0 24 25" fill="none" xmlns="http://www.w3.org/2000/svg">
<g clip-path="url(#clip0_1_175)">
<path d="M12 2.73241C15.2063 2.73241 15.5859 2.74647 16.8469 2.80272C18.0188 2.85428 18.6516 3.05116 19.0734 3.21522C19.6313 3.43085 20.0344 3.69335 20.4516 4.11053C20.8734 4.53241 21.1313 4.93085 21.3469 5.48866C21.5109 5.91053 21.7078 6.54803 21.7594 7.71522C21.8156 8.98085 21.8297 9.36053 21.8297 12.5621C21.8297 15.7683 21.8156 16.148 21.7594 17.409C21.7078 18.5808 21.5109 19.2137 21.3469 19.6355C21.1313 20.1933 20.8687 20.5965 20.4516 21.0137C20.0297 21.4355 19.6313 21.6933 19.0734 21.909C18.6516 22.073 18.0141 22.2699 16.8469 22.3215C15.5813 22.3777 15.2016 22.3918 12 22.3918C8.79375 22.3918 8.41406 22.3777 7.15313 22.3215C5.98125 22.2699 5.34844 22.073 4.92656 21.909C4.36875 21.6933 3.96563 21.4308 3.54844 21.0137C3.12656 20.5918 2.86875 20.1933 2.65313 19.6355C2.48906 19.2137 2.29219 18.5762 2.24063 17.409C2.18438 16.1433 2.17031 15.7637 2.17031 12.5621C2.17031 9.35585 2.18438 8.97616 2.24063 7.71522C2.29219 6.54335 2.48906 5.91053 2.65313 5.48866C2.86875 4.93085 3.13125 4.52772 3.54844 4.11053C3.97031 3.68866 4.36875 3.43085 4.92656 3.21522C5.34844 3.05116 5.98594 2.85428 7.15313 2.80272C8.41406 2.74647 8.79375 2.73241 12 2.73241ZM12 0.571472C8.74219 0.571472 8.33438 0.585535 7.05469 0.641785C5.77969 0.698035 4.90313 0.904285 4.14375 1.1996C3.35156 1.50897 2.68125 1.91678 2.01563 2.5871C1.34531 3.25272 0.9375 3.92304 0.628125 4.71054C0.332812 5.4746 0.126563 6.34647 0.0703125 7.62147C0.0140625 8.90585 0 9.31366 0 12.5715C0 15.8293 0.0140625 16.2371 0.0703125 17.5168C0.126563 18.7918 0.332812 19.6683 0.628125 20.4277C0.9375 21.2199 1.34531 21.8902 2.01563 22.5558C2.68125 23.2215 3.35156 23.634 4.13906 23.9387C4.90313 24.234 5.775 24.4402 7.05 24.4965C8.32969 24.5527 8.7375 24.5668 11.9953 24.5668C15.2531 24.5668 15.6609 24.5527 16.9406 24.4965C18.2156 24.4402 19.0922 24.234 19.8516 23.9387C20.6391 23.634 21.3094 23.2215 21.975 22.5558C22.6406 21.8902 23.0531 21.2199 23.3578 20.4324C23.6531 19.6683 23.8594 18.7965 23.9156 17.5215C23.9719 16.2418 23.9859 15.834 23.9859 12.5762C23.9859 9.31835 23.9719 8.91053 23.9156 7.63085C23.8594 6.35585 23.6531 5.47928 23.3578 4.71991C23.0625 3.92303 22.6547 3.25272 21.9844 2.5871C21.3188 1.92147 20.6484 1.50897 19.8609 1.20428C19.0969 0.908972 18.225 0.702722 16.95 0.646472C15.6656 0.585535 15.2578 0.571472 12 0.571472Z" fill="white"/>
<path d="M12 6.40741C8.59688 6.40741 5.83594 9.16835 5.83594 12.5715C5.83594 15.9746 8.59688 18.7355 12 18.7355C15.4031 18.7355 18.1641 15.9746 18.1641 12.5715C18.1641 9.16835 15.4031 6.40741 12 6.40741ZM12 16.5699C9.79219 16.5699 8.00156 14.7793 8.00156 12.5715C8.00156 10.3637 9.79219 8.57303 12 8.57303C14.2078 8.57303 15.9984 10.3637 15.9984 12.5715C15.9984 14.7793 14.2078 16.5699 12 16.5699Z" fill="white"/>
<path d="M19.8469 6.16361C19.8469 6.96049 19.2 7.60268 18.4078 7.60268C17.6109 7.60268 16.9688 6.9558 16.9688 6.16361C16.9688 5.36674 17.6156 4.72455 18.4078 4.72455C19.2 4.72455 19.8469 5.37142 19.8469 6.16361Z" fill="white"/>
</g>
<defs>
<clipPath id="clip0_1_175">
<rect width="24" height="24" fill="white" transform="translate(0 0.571472)"/>
</clipPath>
</defs>
</svg>
