<svg width="25" height="25" viewBox="0 0 25 25" fill="none" xmlns="http://www.w3.org/2000/svg">
<g clip-path="url(#clip0_1_175)">
<path d="M12.6045 2.79338C15.8107 2.79338 16.1904 2.80745 17.4514 2.8637C18.6232 2.91526 19.2561 3.11213 19.6779 3.2762C20.2357 3.49182 20.6389 3.75432 21.0561 4.17151C21.4779 4.59338 21.7357 4.99182 21.9514 5.54963C22.1154 5.97151 22.3123 6.60901 22.3639 7.7762C22.4201 9.04182 22.4342 9.42151 22.4342 12.6231C22.4342 15.8293 22.4201 16.209 22.3639 17.4699C22.3123 18.6418 22.1154 19.2746 21.9514 19.6965C21.7357 20.2543 21.4732 20.6574 21.0561 21.0746C20.6342 21.4965 20.2357 21.7543 19.6779 21.9699C19.2561 22.134 18.6186 22.3309 17.4514 22.3824C16.1857 22.4387 15.8061 22.4528 12.6045 22.4528C9.39824 22.4528 9.01856 22.4387 7.75762 22.3824C6.58574 22.3309 5.95293 22.134 5.53105 21.9699C4.97324 21.7543 4.57012 21.4918 4.15293 21.0746C3.73105 20.6528 3.47324 20.2543 3.25762 19.6965C3.09355 19.2746 2.89668 18.6371 2.84512 17.4699C2.78887 16.2043 2.7748 15.8246 2.7748 12.6231C2.7748 9.41682 2.78887 9.03713 2.84512 7.7762C2.89668 6.60432 3.09355 5.97151 3.25762 5.54963C3.47324 4.99182 3.73574 4.5887 4.15293 4.17151C4.5748 3.74963 4.97324 3.49182 5.53105 3.2762C5.95293 3.11213 6.59043 2.91526 7.75762 2.8637C9.01856 2.80745 9.39824 2.79338 12.6045 2.79338ZM12.6045 0.632446C9.34668 0.632446 8.93887 0.646509 7.65918 0.702759C6.38418 0.759009 5.50762 0.965259 4.74824 1.26057C3.95605 1.56995 3.28574 1.97776 2.62012 2.64807C1.9498 3.3137 1.54199 3.98401 1.23262 4.77151C0.937305 5.53557 0.731055 6.40745 0.674805 7.68245C0.618555 8.96682 0.604492 9.37463 0.604492 12.6324C0.604492 15.8903 0.618555 16.2981 0.674805 17.5778C0.731055 18.8528 0.937305 19.7293 1.23262 20.4887C1.54199 21.2809 1.9498 21.9512 2.62012 22.6168C3.28574 23.2824 3.95606 23.6949 4.74356 23.9996C5.50762 24.2949 6.37949 24.5012 7.65449 24.5574C8.93418 24.6137 9.34199 24.6278 12.5998 24.6278C15.8576 24.6278 16.2654 24.6137 17.5451 24.5574C18.8201 24.5012 19.6967 24.2949 20.4561 23.9996C21.2436 23.6949 21.9139 23.2824 22.5795 22.6168C23.2451 21.9512 23.6576 21.2809 23.9623 20.4934C24.2576 19.7293 24.4639 18.8574 24.5201 17.5824C24.5764 16.3028 24.5904 15.8949 24.5904 12.6371C24.5904 9.37932 24.5764 8.97151 24.5201 7.69182C24.4639 6.41682 24.2576 5.54026 23.9623 4.78088C23.667 3.98401 23.2592 3.3137 22.5889 2.64807C21.9232 1.98245 21.2529 1.56995 20.4654 1.26526C19.7014 0.969946 18.8295 0.763696 17.5545 0.707446C16.2701 0.646509 15.8623 0.632446 12.6045 0.632446Z" fill="#101010"/>
<path d="M12.6045 6.46838C9.20137 6.46838 6.44043 9.22932 6.44043 12.6324C6.44043 16.0356 9.20137 18.7965 12.6045 18.7965C16.0076 18.7965 18.7686 16.0356 18.7686 12.6324C18.7686 9.22932 16.0076 6.46838 12.6045 6.46838ZM12.6045 16.6309C10.3967 16.6309 8.60605 14.8403 8.60605 12.6324C8.60605 10.4246 10.3967 8.63401 12.6045 8.63401C14.8123 8.63401 16.6029 10.4246 16.6029 12.6324C16.6029 14.8403 14.8123 16.6309 12.6045 16.6309Z" fill="#101010"/>
<path d="M20.4514 6.22459C20.4514 7.02146 19.8045 7.66365 19.0123 7.66365C18.2154 7.66365 17.5732 7.01678 17.5732 6.22459C17.5732 5.42771 18.2201 4.78552 19.0123 4.78552C19.8045 4.78552 20.4514 5.4324 20.4514 6.22459Z" fill="#101010"/>
</g>
<defs>
<clipPath id="clip0_1_175">
<rect width="24" height="24" fill="white" transform="translate(0.604492 0.632446)"/>
</clipPath>
</defs>
</svg>
