<svg width="24" height="25" viewBox="0 0 24 25" fill="none" xmlns="http://www.w3.org/2000/svg">
<g clip-path="url(#clip0_1_184)">
<path d="M17.0725 0.571472H13.0278V16.9193C13.0278 18.8671 11.4722 20.4671 9.53626 20.4671C7.60034 20.4671 6.04469 18.8671 6.04469 16.9193C6.04469 15.0063 7.56577 13.441 9.43257 13.3715V9.26714C5.31872 9.33667 2 12.7106 2 16.9193C2 21.1628 5.38786 24.5715 9.57085 24.5715C13.7538 24.5715 17.1416 21.128 17.1416 16.9193V8.53667C18.6627 9.64974 20.5295 10.3106 22.5 10.3454V6.24104C19.4579 6.13669 17.0725 3.63234 17.0725 0.571472Z" fill="white"/>
</g>
<defs>
<clipPath id="clip0_1_184">
<rect width="24" height="24" fill="white" transform="translate(0 0.571472)"/>
</clipPath>
</defs>
</svg>
