<svg width="25" height="25" viewBox="0 0 25 25" fill="none" xmlns="http://www.w3.org/2000/svg">
<g clip-path="url(#clip0_1_184)">
<path d="M17.677 0.632446H13.6323V16.9802C13.6323 18.9281 12.0767 20.5281 10.1408 20.5281C8.20483 20.5281 6.64918 18.9281 6.64918 16.9802C6.64918 15.0672 8.17026 13.502 10.0371 13.4324V9.32811C5.92321 9.39765 2.60449 12.7716 2.60449 16.9802C2.60449 21.2238 5.99235 24.6324 10.1753 24.6324C14.3583 24.6324 17.7461 21.189 17.7461 16.9802V8.59765C19.2672 9.71071 21.134 10.3716 23.1045 10.4064V6.30201C20.0624 6.19767 17.677 3.69331 17.677 0.632446Z" fill="#101010"/>
</g>
<defs>
<clipPath id="clip0_1_184">
<rect width="24" height="24" fill="white" transform="translate(0.604492 0.632446)"/>
</clipPath>
</defs>
</svg>
