<svg width="24" height="25" viewBox="0 0 24 25" fill="none" xmlns="http://www.w3.org/2000/svg">
<path d="M23.7609 7.77152C23.7609 7.77152 23.5266 6.11683 22.8047 5.39027C21.8906 4.43402 20.8688 4.42933 20.4 4.37308C17.0438 4.12933 12.0047 4.12933 12.0047 4.12933H11.9953C11.9953 4.12933 6.95625 4.12933 3.6 4.37308C3.13125 4.42933 2.10938 4.43402 1.19531 5.39027C0.473438 6.11683 0.24375 7.77152 0.24375 7.77152C0.24375 7.77152 0 9.71683 0 11.6575V13.4762C0 15.4168 0.239062 17.3621 0.239062 17.3621C0.239062 17.3621 0.473437 19.0168 1.19062 19.7434C2.10469 20.6996 3.30469 20.6668 3.83906 20.77C5.76094 20.9528 12 21.009 12 21.009C12 21.009 17.0438 20.9996 20.4 20.7606C20.8688 20.7043 21.8906 20.6996 22.8047 19.7434C23.5266 19.0168 23.7609 17.3621 23.7609 17.3621C23.7609 17.3621 24 15.4215 24 13.4762V11.6575C24 9.71683 23.7609 7.77152 23.7609 7.77152ZM9.52031 15.684V8.93871L16.0031 12.3231L9.52031 15.684Z" fill="white"/>
</svg>
