<svg width="25" height="25" viewBox="0 0 25 25" fill="none" xmlns="http://www.w3.org/2000/svg">
<g clip-path="url(#clip0_13_202)">
<path d="M24.3654 7.8325C24.3654 7.8325 24.1311 6.17781 23.4092 5.45125C22.4951 4.495 21.4732 4.49031 21.0045 4.43406C17.6482 4.19031 12.6092 4.19031 12.6092 4.19031H12.5998C12.5998 4.19031 7.56074 4.19031 4.20449 4.43406C3.73574 4.49031 2.71387 4.495 1.7998 5.45125C1.07793 6.17781 0.848242 7.8325 0.848242 7.8325C0.848242 7.8325 0.604492 9.77781 0.604492 11.7184V13.5372C0.604492 15.4778 0.843555 17.4231 0.843555 17.4231C0.843555 17.4231 1.07793 19.0778 1.79512 19.8044C2.70918 20.7606 3.90918 20.7278 4.44355 20.8309C6.36543 21.0137 12.6045 21.07 12.6045 21.07C12.6045 21.07 17.6482 21.0606 21.0045 20.8216C21.4732 20.7653 22.4951 20.7606 23.4092 19.8044C24.1311 19.0778 24.3654 17.4231 24.3654 17.4231C24.3654 17.4231 24.6045 15.4825 24.6045 13.5372V11.7184C24.6045 9.77781 24.3654 7.8325 24.3654 7.8325ZM10.1248 15.745V8.99968L16.6076 12.3841L10.1248 15.745Z" fill="#101010"/>
</g>
<defs>
<clipPath id="clip0_13_202">
<rect width="24" height="24" fill="white" transform="translate(0.604492 0.632446)"/>
</clipPath>
</defs>
</svg>
