<svg width="198" height="34" viewBox="0 0 198 34" fill="none" xmlns="http://www.w3.org/2000/svg">
<path d="M192.408 0H198L191.357 16.5595L198 33.119H192.408L189.302 24.3972V33.119H183.734V0H189.302V8.72182L192.408 0Z" fill="white"/>
<path d="M174.441 0H179.841V5.54373V24.6839V27.5753C179.841 29.0409 179.356 30.2993 178.384 31.3507C177.412 32.3862 176.185 32.9677 174.704 33.0951C174.545 33.127 174.385 33.1429 174.226 33.1429H171.191C171.048 33.1429 170.905 33.127 170.761 33.0951C169.28 32.9677 168.045 32.3862 167.057 31.3507C166.07 30.2993 165.576 29.0409 165.576 27.5753V24.6839V5.54373V0H171H171.167V26.6195C171.167 27.2726 171.319 27.8222 171.621 28.2682C171.701 28.3798 171.781 28.4833 171.86 28.5789C172.115 28.7382 172.402 28.8178 172.721 28.8178C173.039 28.8178 173.318 28.7382 173.557 28.5789C174.035 28.085 174.274 27.4319 174.274 26.6195V0H174.441Z" fill="white"/>
<path d="M152.985 18.3278V33.119H147.417V0H152.985V14.1222H156.091V0H161.683V33.119H156.091V18.3278H152.985Z" fill="white"/>
<path d="M143.548 12.3778H137.957V12.33V6.59513C137.957 5.95792 137.805 5.41629 137.503 4.97024C137.296 4.66757 137.057 4.46047 136.786 4.34896C136.658 4.3171 136.531 4.30117 136.403 4.30117C136.244 4.30117 136.093 4.32506 135.949 4.37286C135.217 4.8189 134.85 5.55966 134.85 6.59513V26.5239C134.85 27.177 135.002 27.7266 135.304 28.1727C135.479 28.4435 135.695 28.6346 135.949 28.7461C136.093 28.7939 136.244 28.8178 136.403 28.8178C136.563 28.8178 136.714 28.7939 136.857 28.7461C137.59 28.3001 137.957 27.5593 137.957 26.5239V20.8129H143.524H143.548V27.5753C143.548 29.0727 143.03 30.3551 141.995 31.4224C140.975 32.4738 139.709 33.0394 138.196 33.119C138.1 33.1349 138.004 33.1429 137.909 33.1429H134.755C134.675 33.1429 134.603 33.1349 134.54 33.119C133.026 33.0075 131.768 32.434 130.764 31.3985C129.761 30.3471 129.259 29.0727 129.259 27.5753V24.6839V8.45897V5.54373C129.259 4.04629 129.768 2.77186 130.788 1.72047C131.808 0.669071 133.074 0.0955815 134.587 0C134.667 0 134.747 0 134.826 0H137.981C138.06 0 138.132 0 138.196 0C139.725 0.0955815 140.999 0.669071 142.019 1.72047C143.038 2.77186 143.548 4.04629 143.548 5.54373V12.3778Z" fill="white"/>
<path d="M120.515 21.7209L119.798 0H125.366V33.119H119.798L115.951 13.5965L116.692 33.119H111.1V0H116.692L120.515 21.7209Z" fill="white"/>
<path d="M96.0241 0H102.332L107.207 33.119H101.616L100.66 23.8715H97.864L97.0516 33.119H91.4601L96.0241 0ZM98.1747 20.1438H100.277L99.1544 9.19972L98.1747 20.1438Z" fill="white"/>
<path d="M84.0783 15.6037L86.5634 0H92.1311L86.659 20.7412V33.119H81.0675V20.1916L76.4079 0H81.9994L84.0783 15.6037Z" fill="white"/>
<path d="M53.5677 21.7209L52.8509 0H58.4185V33.119H52.8509L49.0037 13.5965L49.7445 33.119H44.153V0H49.7445L53.5677 21.7209Z" fill="white"/>
<path d="M29.0769 0H35.3853L40.2599 33.119H34.6684L33.7126 23.8715H30.9168L30.1044 33.119H24.5129L29.0769 0ZM31.2275 20.1438H33.3303L32.2072 9.19972L31.2275 20.1438Z" fill="white"/>
<path d="M17.1311 23.9193L19.6162 0H25.1838L19.5923 33.119H14.0247L9.46063 0H15.0283L17.1311 23.9193Z" fill="white"/>
<path d="M5.56762 0V33.119H0V0H5.56762Z" fill="white"/>
</svg>
