<svg width="180" height="30" viewBox="0 0 180 30" fill="none" xmlns="http://www.w3.org/2000/svg">
<path d="M1.836 23V6.2H6.684V23H1.836ZM14.3033 23L8.27925 6.2H13.7513L17.1833 16.952L20.6153 6.2H25.9913L19.9433 23H14.3033ZM24.9718 23L31.0918 6.2H36.8518L42.9478 23H37.4758L36.5398 20H31.2358L30.2998 23H24.9718ZM32.2678 15.992H35.4838L33.8998 11.192L32.2678 15.992ZM44.7501 23V6.2H49.5981L55.4781 15.224V6.2H60.1581V23H55.3101L49.4301 13.832V23H44.7501Z" fill="white"/>
<path d="M71.288 23V15.584L65.324 6.2H67.472L72.248 13.808L76.988 6.2H79.076L73.112 15.596V23H71.288ZM78.3329 23L85.0169 6.2H86.7929L93.7289 23H91.6769L89.8769 18.596H82.0409L80.3249 23H78.3329ZM82.6049 16.952H89.2889L85.8569 8.624L82.6049 16.952ZM96.4374 23V6.2H98.0934L107.609 19.676V6.2H109.409V23H107.753L98.2374 9.38V23H96.4374ZM121.622 23.36C119.886 23.36 118.37 22.996 117.074 22.268C115.786 21.54 114.786 20.516 114.074 19.196C113.362 17.876 113.006 16.34 113.006 14.588C113.006 13.316 113.218 12.152 113.642 11.096C114.066 10.032 114.662 9.108 115.43 8.324C116.206 7.532 117.118 6.92 118.166 6.488C119.222 6.056 120.378 5.84 121.634 5.84C122.826 5.84 123.882 5.992 124.802 6.296C125.722 6.592 126.51 7.012 127.166 7.556L126.158 9.044C125.59 8.548 124.938 8.18 124.202 7.94C123.466 7.7 122.658 7.58 121.778 7.58C120.738 7.58 119.794 7.744 118.946 8.072C118.106 8.4 117.382 8.868 116.774 9.476C116.174 10.076 115.71 10.808 115.382 11.672C115.062 12.528 114.902 13.496 114.902 14.576C114.902 16.064 115.19 17.332 115.766 18.38C116.342 19.42 117.154 20.216 118.202 20.768C119.258 21.32 120.498 21.596 121.922 21.596C122.834 21.596 123.698 21.464 124.514 21.2C125.338 20.928 126.102 20.484 126.806 19.868L127.67 21.428C126.838 22.084 125.918 22.572 124.91 22.892C123.91 23.204 122.814 23.36 121.622 23.36ZM130.773 23V6.2H132.597V13.172H141.741V6.2H143.565V23H141.741V14.864H132.597V23H130.773ZM154.619 23.36C153.171 23.36 151.963 23.06 150.995 22.46C150.035 21.86 149.311 21.056 148.823 20.048C148.343 19.04 148.103 17.92 148.103 16.688V6.2H149.927V16.556C149.927 18.252 150.351 19.52 151.199 20.36C152.047 21.2 153.187 21.62 154.619 21.62C156.043 21.62 157.179 21.2 158.027 20.36C158.883 19.52 159.311 18.252 159.311 16.556V6.2H161.135V16.688C161.135 17.912 160.891 19.032 160.403 20.048C159.923 21.056 159.199 21.86 158.231 22.46C157.271 23.06 156.067 23.36 154.619 23.36ZM164.46 23L168.012 6.2H169.836L167.856 15.62L177.48 6.2H179.796L172.068 13.784L177.276 23H175.02L170.652 15.14L167.244 18.392L166.284 23H164.46Z" fill="white"/>
</svg>
